<?xml version="1.0" encoding="utf-8"?>
<!-- Generator: Adobe Illustrator 26.1.0, SVG Export Plug-In . SVG Version: 6.00 Build 0)  -->
<svg version="1.1" id="Layer_1" xmlns="http://www.w3.org/2000/svg" xmlns:xlink="http://www.w3.org/1999/xlink" x="0px" y="0px"
	 viewBox="0 0 845.8 1080" style="enable-background:new 0 0 845.8 1080;" xml:space="preserve">
<style type="text/css">
	.st0{fill:#29A6DE;}
</style>
<g>
	<path class="st0" d="M61.8,434.5c0,18.4,0,40.5,0,58.8c0,125,0,250.1,0,375.1c0,22.1-18.4,36.8-40.5,22.1c0,0-7.4-3.7-11-11
		c0,0,0,0,0-3.7c0-180.2,0-364.1,0-544.3c0-18.4,0-33.1,3.7-40.5C36,191.8,146.4,144,231,206.5c14.7,11,22.1,25.7,11,40.5
		c-18.4,22.1-33.1,3.7-51.5-7.4C128,206.5,54.4,254.3,61.8,327.9c7.4,66.2,77.2,95.6,132.4,66.2c11-7.4,22.1-18.4,29.4-25.7
		c51.5-47.8,110.3-77.2,180.2-91.9c180.2-36.8,364.1,73.6,415.6,250.1c11,33.1,18.4,66.2,18.4,103c0,99.3-33.1,183.9-103,257.4
		c-7.4,7.4-14.7,14.7-25.7,14.7s-18.4-7.4-22.1-22.1c-3.7-7.4,3.7-18.4,11-25.7c73.6-77.2,103-180.2,84.6-283.2
		c-47.8-231.7-320-327.3-507.5-180.2c-14.7,11-33.1,33.1-51.5,44.1c-29.4,18.4-62.5,25.7-103,22.1c-14.7-3.7-25.7-3.7-40.5-14.7
		C76.5,438.2,72.8,434.5,61.8,434.5C65.5,430.8,61.8,430.8,61.8,434.5L61.8,434.5z"/>
</g>
</svg>
