<?xml version="1.0" encoding="utf-8"?>
<!-- Generator: Adobe Illustrator 26.1.0, SVG Export Plug-In . SVG Version: 6.00 Build 0)  -->
<svg version="1.1" id="Layer_1" xmlns="http://www.w3.org/2000/svg" xmlns:xlink="http://www.w3.org/1999/xlink" x="0px" y="0px"
	 viewBox="0 0 118 30" style="enable-background:new 0 0 118 30;" xml:space="preserve">
<style type="text/css">
	.st0{fill:#FFFDFD;}
</style>
<g>
	<path class="st0" d="M66.6,9.4L66.6,9.4L66.6,9.4c0.1-2.9,0.1-5.8,0.1-8.6c0-0.3,0-0.5,0.3-0.7c0.4-0.2,0.7,0.2,0.7,0.5
		c0,3.3,0,6.7,0,10c0,0.2,0,0.5,0,0.8c0,0.2,0,0.3,0,0.4c-0.2,2.1-2.5,3.4-4.3,2.1c-0.4-0.3-0.5-0.9,0.1-1l0,0
		c0.3,0.1,0.5,0.3,0.8,0.4c2.2,0.8,3.3-2.3,1.4-3.2c-0.5-0.2-1-0.2-1.5,0c-0.4,0.2-0.8,0.9-1.3,0.4c-0.3-0.3-0.1-0.5,0.1-0.8
		c0.7-0.8,2.1-1.1,3-0.6C66.2,9.2,66.4,9.3,66.6,9.4z"/>
	<path class="st0" d="M25.4,12.4c0,0.5,0,1.1,0,1.6c0,3.4,0,6.8,0,10.2c0,0.6-0.5,1-1.1,0.6c0,0-0.2-0.1-0.3-0.3c0,0,0,0,0-0.1
		c0-4.9,0-9.9,0-14.8c0-0.5,0-0.9,0.1-1.1c0.6-2.7,3.6-4,5.9-2.3c0.4,0.3,0.6,0.7,0.3,1.1c-0.5,0.6-0.9,0.1-1.4-0.2
		c-1.7-0.9-3.7,0.4-3.5,2.4c0.2,1.8,2.1,2.6,3.6,1.8c0.3-0.2,0.6-0.5,0.8-0.7c1.4-1.3,3-2.1,4.9-2.5c4.9-1,9.9,2,11.3,6.8
		c0.3,0.9,0.5,1.8,0.5,2.8c0,2.7-0.9,5-2.8,7c-0.2,0.2-0.4,0.4-0.7,0.4s-0.5-0.2-0.6-0.6c-0.1-0.2,0.1-0.5,0.3-0.7
		c2-2.1,2.8-4.9,2.3-7.7c-1.3-6.3-8.7-8.9-13.8-4.9c-0.4,0.3-0.9,0.9-1.4,1.2C29,12.9,28.1,13.1,27,13c-0.4-0.1-0.7-0.1-1.1-0.4
		C25.8,12.5,25.7,12.4,25.4,12.4C25.5,12.3,25.4,12.3,25.4,12.4L25.4,12.4z"/>
	<path class="st0" d="M70.6,11.7C70.6,11.7,70.5,11.7,70.6,11.7C70.5,11.8,70.5,11.8,70.6,11.7c0,0.6,0.2,1,0.6,1.3
		c0.8,0.5,1.7,0.4,2.4-0.3c0.3-0.3,0.9,0,0.8,0.4s-0.9,0.9-1.3,1c-2.1,0.8-4.2-1.3-3.5-3.4c0.6-1.7,2.8-2.6,4.2-1.2
		c0.9,0.9,0.8,2.5-0.8,2.6c-0.5,0-0.9,0-1.2-0.1C71.5,11.9,71.1,11.8,70.6,11.7z M71,10.7c0.7,0.2,1.4,0.4,2.1,0.4
		c0.2,0,0.3-0.1,0.3-0.2c0.1-0.5-0.6-0.9-0.9-0.9c-0.2,0-0.5,0-0.8,0.1s-0.6,0.3-0.8,0.6C70.9,10.6,70.9,10.7,71,10.7L71,10.7z"/>
	<path class="st0" d="M60.9,11.6c0,1.5-1.3,2.7-2.9,2.7c-1.6,0-2.9-1.2-2.9-2.8l0,0c0-1.5,1.3-2.7,2.9-2.7
		C59.6,8.9,60.9,10.1,60.9,11.6z M56.4,12.5l0.3,0.1l0,0c0.7,0.7,1.5,1,2.2,0.1c0.1-0.1,0.2-0.2,0.4-0.2c0.1,0,0.2-0.1,0.2-0.1
		c0.3-0.6,0.3-1.4-0.3-1.9l0,0c-0.1,0-0.3,0-0.4-0.1c-0.8-0.5-1.2-0.5-1.9,0l0,0h-0.3l0,0C56,11,55.9,11.9,56.4,12.5L56.4,12.5z"/>
	<path class="st0" d="M49.8,14c-0.6-0.3-1.3-1.3-1.5-1.9c-0.4-2,1.5-3.7,3.4-3.1c0.3,0.1,1,0.4,1.1,0.8c0.1,0.3-0.2,0.6-0.5,0.6
		c-0.1,0-0.2-0.1-0.4-0.2c-1.1-0.7-2.6-0.2-2.7,1.1c-0.1,0.9,0.3,1.6,1.2,1.9c0.7,0.2,1.4,0,1.9-0.5s1.1,0.2,0.7,0.6
		C52.2,14.3,50.9,14.6,49.8,14z"/>
	<path class="st0" d="M66.2,21c0,2.8,0,5.5,0,8.3c0,0.4-0.2,0.4-0.5,0.5c-0.1,0-0.3,0-0.3-0.2c0-0.1-0.1-0.2-0.1-0.2
		c0-3.1,0-6.3,0-9.4c0-0.4-0.1-1,0-1.4c0.3-1.9,2.3-3,4-1.8c0.3,0.2,0.5,0.6,0.1,0.9c-0.3,0.3-0.8-0.3-1-0.3c-2.5-0.7-3,2.8-0.9,3.2
		c0.5,0.1,0.9,0,1.3-0.3c0.1-0.1,0.3-0.3,0.4-0.4c0.4-0.1,0.7,0.4,0.5,0.7c-0.7,0.9-2,1.3-3,0.7c-0.2-0.1-0.3-0.2-0.4-0.2
		C66.3,20.9,66.3,20.9,66.2,21C66.2,20.9,66.2,21,66.2,21z"/>
	<path class="st0" d="M75.3,18.6c0-0.2,0-0.3-0.1-0.5c-0.4-1-1.7-1.4-2.6-0.6c-0.2,0.1-0.4,0.4-0.6,0.3c-0.3-0.1-0.5-0.5-0.2-0.8
		c0.2-0.3,0.6-0.5,0.9-0.7c1.5-0.7,3.2,0.4,3.5,2c0.3,2.1-2,4.1-3.9,2.6c-0.7-0.6-1.1-1.8-0.2-2.4c0.5-0.4,1.5-0.3,2.1-0.1
		C74.6,18.5,74.9,18.6,75.3,18.6C75.3,18.7,75.3,18.6,75.3,18.6L75.3,18.6z M72.8,20c0.4,0.4,1,0.5,1.6,0.2c0.2-0.1,0.4-0.3,0.6-0.5
		v-0.1l0,0c-0.7-0.2-1.3-0.4-2-0.3C72.5,19.3,72.6,19.8,72.8,20z"/>
	<path class="st0" d="M85.5,19.1C85.5,19,85.4,19.1,85.5,19.1C85.4,19.1,85.4,19.1,85.5,19.1c0,0.4,0.1,0.7,0.3,0.9
		c0.6,0.6,1.5,0.7,2.2,0c0.3-0.3,0.7-0.5,1-0.1c0.2,0.2-0.1,0.6-0.2,0.8c-0.3,0.2-0.7,0.5-1,0.6c-1.5,0.5-3-0.6-3.3-2.1
		c-0.3-2.1,2-4.1,3.9-2.7c0.6,0.4,0.9,1.1,0.7,1.8c-0.1,0.8-1,1-1.7,1C86.7,19.4,86.1,19.2,85.5,19.1z M85.8,18
		c0.6,0.2,1.2,0.3,1.8,0.3c0.5,0,0.7-0.3,0.4-0.7c-0.5-0.6-1.2-0.6-1.8-0.2c-0.2,0.1-0.3,0.2-0.4,0.4C85.7,17.9,85.7,17.9,85.8,18
		C85.7,18,85.7,18,85.8,18z"/>
	<path class="st0" d="M49.2,20.8c-2.5-2.2,0.6-6.1,3.2-4c0.2,0.2,0.3,0.4,0.1,0.6c-0.2,0.4-0.5,0.1-0.8,0c-1.7-1.1-3.4,1.2-2.1,2.6
		c0.6,0.6,1.6,0.7,2.2,0.1c0.3-0.2,0.6-0.5,0.8-0.8c2.2-1.8,5.4-2,7.8-0.4c3.7,2.5,4.1,7.6,1.1,10.8c-0.4,0.4-1-0.3-0.5-0.7
		c1-1.1,1.5-2.3,1.6-3.7c0.3-3.4-2.2-6.4-5.6-6.5c-1.6-0.1-3,0.5-4.1,1.6c-0.4,0.3-0.7,0.7-1.2,0.9C50.8,21.6,49.8,21.4,49.2,20.8z"
		/>
	<path class="st0" d="M82.5,20.5c-1.9,2.2-5,0.2-4.4-2.4c0.2-0.7,0.7-1.3,1.4-1.6c0.8-0.4,1.6-0.3,2.5,0.2c0.4,0.3,0.5,0.9-0.1,1
		c0,0,0,0-0.1,0s-0.2-0.1-0.4-0.2c-0.9-0.6-2.3-0.1-2.5,1s0.5,2,1.6,2.1c0.4,0,0.8-0.1,1.1-0.4c0.2-0.2,0.3-0.3,0.4-0.3
		C82.4,19.6,82.8,20.1,82.5,20.5z"/>
</g>
</svg>
